<svg width="295" height="73" viewBox="0 0 295 73" fill="none" xmlns="http://www.w3.org/2000/svg">
<rect width="73" height="73" fill="#004E87"/>
<path d="M105.16 53.44C100.627 53.44 97.16 52.0933 94.76 49.4C92.36 46.68 91.16 42.9733 91.16 38.28C91.16 35.1867 91.7867 32.4933 93.04 30.2C94.32 27.88 96.0667 26.0933 98.28 24.84C100.493 23.5867 103 22.96 105.8 22.96C106.973 22.96 108.107 23.04 109.2 23.2C110.293 23.3333 111.587 23.52 113.08 23.76C114.2 23.9467 114.813 24.04 114.92 24.04L114.48 32.28H110.8L109.56 26.56C109.267 26.2667 108.76 26.0267 108.04 25.84C107.32 25.6533 106.4 25.56 105.28 25.56C103.013 25.56 101.187 26.6133 99.8 28.72C98.44 30.8 97.76 33.8267 97.76 37.8C97.76 41.64 98.4133 44.7733 99.72 47.2C101.027 49.6267 102.933 50.84 105.44 50.84C106.64 50.84 107.56 50.7333 108.2 50.52C108.867 50.28 109.427 49.9467 109.88 49.52L111.64 45.4L115 45.72L114.2 51.92C113.64 51.9733 113.08 52.08 112.52 52.24C111.987 52.3733 111.653 52.4533 111.52 52.48C110.453 52.7733 109.453 53 108.52 53.16C107.613 53.3467 106.493 53.44 105.16 53.44ZM118.128 50.64L120.768 50.32V34.56L118.208 33.84V31.08L124.408 30.24H124.528L125.528 31.04V31.92L125.408 35.16H125.528C125.715 34.6267 126.155 33.9733 126.848 33.2C127.541 32.4 128.408 31.7067 129.448 31.12C130.515 30.5067 131.661 30.2 132.888 30.2C133.475 30.2 133.981 30.28 134.408 30.44V36.44C133.608 35.88 132.635 35.6 131.488 35.6C129.541 35.6 127.848 36.12 126.408 37.16V50.28L131.048 50.64V53H118.128V50.64ZM140.516 62.96C140.036 62.96 139.516 62.92 138.956 62.84C138.423 62.76 138.036 62.6667 137.796 62.56V58.28C137.983 58.3867 138.356 58.4933 138.916 58.6C139.476 58.7067 139.983 58.76 140.436 58.76C141.77 58.76 142.863 58.32 143.716 57.44C144.596 56.56 145.41 55.08 146.156 53H143.996L136.476 33.6L134.676 33.08V30.76H145.676V33.08L142.756 33.56L146.316 44.64L147.756 49.36L148.996 44.64L152.276 33.56L149.756 33.08V30.76H158.436V33.08L156.476 33.56C155.01 38.04 153.556 42.36 152.116 46.52C150.676 50.68 149.836 53.0133 149.596 53.52C148.743 55.76 147.93 57.5467 147.156 58.88C146.383 60.2133 145.463 61.2267 144.396 61.92C143.33 62.6133 142.036 62.96 140.516 62.96ZM182.006 41.16C182.006 43.4 181.539 45.4533 180.606 47.32C179.699 49.1867 178.353 50.68 176.566 51.8C174.806 52.8933 172.699 53.44 170.246 53.44C169.713 53.44 169.153 53.3867 168.566 53.28C168.006 53.2 167.553 53.0933 167.206 52.96L167.326 56.28V59.92L171.046 60.4V62.68H159.166V60.4L161.766 59.92V34.56L159.166 33.84V31.08L165.766 30.24H165.846L166.846 31.04V33.28C167.513 32.4533 168.419 31.7333 169.566 31.12C170.713 30.5067 171.966 30.2 173.326 30.2C175.859 30.2 177.939 31.1067 179.566 32.92C181.193 34.7067 182.006 37.4533 182.006 41.16ZM171.246 33.52C170.446 33.52 169.686 33.6933 168.966 34.04C168.246 34.3867 167.699 34.7733 167.326 35.2V50.04C167.513 50.3067 167.886 50.5333 168.446 50.72C169.033 50.9067 169.673 51 170.366 51C172.099 51 173.473 50.2533 174.486 48.76C175.526 47.24 176.046 44.8667 176.046 41.64C176.046 38.92 175.606 36.8933 174.726 35.56C173.846 34.2 172.686 33.52 171.246 33.52ZM189.717 49.72C189.93 50.04 190.41 50.3467 191.157 50.64C191.93 50.9067 192.703 51.04 193.477 51.04C194.73 51.04 195.663 50.7867 196.277 50.28C196.917 49.7467 197.237 49.0533 197.237 48.2C197.237 47.32 196.85 46.6133 196.077 46.08C195.303 45.52 193.997 44.84 192.157 44.04L191.037 43.56C189.197 42.7867 187.823 41.8533 186.917 40.76C186.01 39.6667 185.557 38.2533 185.557 36.52C185.557 35.32 185.917 34.2533 186.637 33.32C187.357 32.36 188.37 31.6133 189.677 31.08C190.983 30.5467 192.49 30.28 194.197 30.28C195.45 30.28 196.517 30.36 197.397 30.52C198.303 30.68 199.25 30.8933 200.237 31.16C200.77 31.3467 201.17 31.4533 201.437 31.48V36.72H198.277L197.357 33.68C197.197 33.4133 196.837 33.1733 196.277 32.96C195.717 32.7467 195.077 32.64 194.357 32.64C193.263 32.64 192.383 32.88 191.717 33.36C191.077 33.8133 190.757 34.4533 190.757 35.28C190.757 36.0267 190.983 36.6533 191.437 37.16C191.89 37.64 192.383 38.0133 192.917 38.28C193.45 38.5467 194.437 38.9867 195.877 39.6C197.317 40.2133 198.503 40.8 199.437 41.36C200.397 41.92 201.183 42.6533 201.797 43.56C202.437 44.44 202.757 45.52 202.757 46.8C202.757 48.7733 201.983 50.3733 200.437 51.6C198.89 52.8267 196.663 53.44 193.757 53.44C192.397 53.44 191.17 53.32 190.077 53.08C189.01 52.84 187.77 52.52 186.357 52.12L185.477 51.84V46.56H188.797L189.717 49.72ZM209.579 62.96C209.099 62.96 208.579 62.92 208.019 62.84C207.485 62.76 207.099 62.6667 206.859 62.56V58.28C207.045 58.3867 207.419 58.4933 207.979 58.6C208.539 58.7067 209.045 58.76 209.499 58.76C210.832 58.76 211.925 58.32 212.779 57.44C213.659 56.56 214.472 55.08 215.219 53H213.059L205.539 33.6L203.739 33.08V30.76H214.739V33.08L211.819 33.56L215.379 44.64L216.819 49.36L218.059 44.64L221.339 33.56L218.819 33.08V30.76H227.499V33.08L225.539 33.56C224.072 38.04 222.619 42.36 221.179 46.52C219.739 50.68 218.899 53.0133 218.659 53.52C217.805 55.76 216.992 57.5467 216.219 58.88C215.445 60.2133 214.525 61.2267 213.459 61.92C212.392 62.6133 211.099 62.96 209.579 62.96ZM237.308 53.44C235.655 53.44 234.175 53.0533 232.868 52.28C231.562 51.48 230.522 50.2533 229.748 48.6C228.975 46.9467 228.588 44.88 228.588 42.4C228.588 40.16 229.042 38.12 229.948 36.28C230.882 34.4133 232.242 32.9333 234.028 31.84C235.815 30.7467 237.962 30.2 240.468 30.2C241.482 30.2 242.442 30.3067 243.348 30.52V23.76L239.428 23.2V21L247.668 20.2H247.788L248.908 21.04V50.56H251.068V52.84C249.148 53.24 247.562 53.44 246.308 53.44C245.455 53.44 244.842 53.2933 244.468 53C244.122 52.7333 243.948 52.1867 243.948 51.36V50.24C243.255 51.1733 242.308 51.9467 241.108 52.56C239.908 53.1467 238.642 53.44 237.308 53.44ZM239.388 50.12C240.268 50.12 241.042 49.9467 241.708 49.6C242.402 49.2267 242.948 48.7867 243.348 48.28V33.72C243.162 33.4533 242.762 33.2267 242.148 33.04C241.562 32.8533 240.922 32.76 240.228 32.76C238.522 32.76 237.148 33.5067 236.108 35C235.095 36.4667 234.588 38.8267 234.588 42.08C234.588 44.8 235.028 46.8267 235.908 48.16C236.788 49.4667 237.948 50.12 239.388 50.12ZM253.988 50.64L256.628 50.32V34.56L254.068 33.84V31.08L260.268 30.24H260.388L261.388 31.04V31.92L261.268 35.16H261.388C261.574 34.6267 262.014 33.9733 262.708 33.2C263.401 32.4 264.268 31.7067 265.308 31.12C266.374 30.5067 267.521 30.2 268.748 30.2C269.334 30.2 269.841 30.28 270.268 30.44V36.44C269.468 35.88 268.494 35.6 267.348 35.6C265.401 35.6 263.708 36.12 262.268 37.16V50.28L266.908 50.64V53H253.988V50.64ZM272.376 46.76C272.376 44.3333 273.589 42.5067 276.016 41.28C278.469 40.0533 281.629 39.4267 285.496 39.4V38.48C285.496 37.3867 285.376 36.5333 285.136 35.92C284.922 35.3067 284.509 34.8533 283.896 34.56C283.309 34.24 282.442 34.08 281.296 34.08C279.989 34.08 278.816 34.2533 277.776 34.6C276.736 34.92 275.656 35.3467 274.536 35.88L273.296 33.32C273.696 32.9733 274.362 32.56 275.296 32.08C276.256 31.6 277.389 31.1867 278.696 30.84C280.002 30.4667 281.349 30.28 282.736 30.28C284.789 30.28 286.389 30.5467 287.536 31.08C288.709 31.6133 289.549 32.4667 290.056 33.64C290.562 34.8133 290.816 36.3867 290.816 38.36V50.6H292.976V52.84C292.442 52.9733 291.682 53.1067 290.696 53.24C289.709 53.3733 288.842 53.44 288.096 53.44C287.189 53.44 286.576 53.3067 286.256 53.04C285.962 52.7733 285.816 52.2267 285.816 51.4V50.32C285.096 51.12 284.162 51.84 283.016 52.48C281.869 53.12 280.576 53.44 279.136 53.44C277.909 53.44 276.776 53.1867 275.736 52.68C274.722 52.1467 273.909 51.3867 273.296 50.4C272.682 49.3867 272.376 48.1733 272.376 46.76ZM281.696 50.12C282.256 50.12 282.896 49.96 283.616 49.64C284.336 49.2933 284.962 48.88 285.496 48.4V41.84C283.096 41.84 281.296 42.2533 280.096 43.08C278.922 43.88 278.336 44.92 278.336 46.2C278.336 47.48 278.629 48.4533 279.216 49.12C279.829 49.7867 280.656 50.12 281.696 50.12Z" fill="#004E87"/>
<path d="M50.7308 50.3544C50.7308 53.8881 44.496 56.7528 36.805 56.7528C29.114 56.7528 22.8792 53.8881 22.8792 50.3544C22.8792 47.6775 26.4572 45.3845 31.5358 44.43L32.9628 46.4781C32.9889 46.4744 33.0151 46.4707 33.0413 46.4671V46.5907L32.9628 46.4781C28.8304 47.0677 25.8902 48.5809 25.8902 50.3544C25.8902 52.641 30.7769 54.4945 36.805 54.4945C42.8331 54.4945 47.7198 52.641 47.7198 50.3544C47.7198 48.5809 44.7796 47.0677 40.6472 46.4781L40.5687 46.5907V46.4671C40.5949 46.4707 40.6211 46.4744 40.6472 46.4781L42.0742 44.43C47.1528 45.3845 50.7308 47.6775 50.7308 50.3544Z" fill="white"/>
<path d="M34.6305 48.2769L34.5775 48.2877L20.4439 24.6346C21.7441 25.5314 23.3685 26.3026 25.2167 26.9213C28.4676 28.0096 32.4767 28.6484 36.805 28.6484C41.1333 28.6484 45.1424 28.0096 48.3933 26.9213C50.2415 26.3026 51.8659 25.5314 53.1661 24.6346L39.0324 48.2877L38.9795 48.2769L38.8466 48.5893C38.8375 48.5973 38.8275 48.6057 38.8166 48.6145C38.7203 48.6916 38.5741 48.7744 38.375 48.8501C37.9771 49.0014 37.4271 49.1017 36.805 49.1017C36.1829 49.1017 35.6328 49.0014 35.2349 48.8501C35.0358 48.7744 34.8897 48.6916 34.7934 48.6145C34.7824 48.6057 34.7725 48.5973 34.7634 48.5893L34.6305 48.2769Z" stroke="white"/>
<path d="M23.3792 52.9236C24.1577 53.8721 25.3408 54.6859 26.7492 55.333C29.3485 56.5273 32.9043 57.2527 36.805 57.2527C40.7057 57.2527 44.2615 56.5273 46.8608 55.333C48.2692 54.6859 49.4523 53.8721 50.2308 52.9236V56.3764C50.2308 57.8294 48.9274 59.305 46.4433 60.4463C44.0024 61.5678 40.5953 62.2747 36.805 62.2747C33.0147 62.2747 29.6076 61.5678 27.1667 60.4463C24.6826 59.305 23.3792 57.8294 23.3792 56.3764V52.9236Z" stroke="white"/>
<path d="M24.7611 47.7198L20.621 25.1375L24.0083 30.0303L26.6429 46.2143L24.7611 47.7198Z" fill="white"/>
<path d="M48.8489 47.7198L52.989 25.1375L49.6017 30.0303L46.9671 46.2143L48.8489 47.7198Z" fill="white"/>
<path fill-rule="evenodd" clip-rule="evenodd" d="M36.805 28.1484C47.4061 28.1484 56 24.2728 56 19.4919C56 14.711 47.4061 10.8353 36.805 10.8353C26.2039 10.8353 17.61 14.711 17.61 19.4919C17.61 24.2728 26.2039 28.1484 36.805 28.1484ZM36.805 25.1375C44.9117 25.1375 51.4835 22.6098 51.4835 19.4919C51.4835 16.3739 44.9117 13.8463 36.805 13.8463C28.6982 13.8463 22.1264 16.3739 22.1264 19.4919C22.1264 22.6098 28.6982 25.1375 36.805 25.1375Z" fill="white"/>
</svg>
