<svg width="438" height="288" viewBox="0 0 438 288" fill="none" xmlns="http://www.w3.org/2000/svg">
<mask id="mask0" mask-type="alpha" maskUnits="userSpaceOnUse" x="0" y="-1" width="512" height="289">
<path d="M511.999 33.536C475.425 33.536 475.425 0 438.852 0C402.279 0 402.278 33.536 365.705 33.536C329.133 33.536 329.133 0 292.561 0C255.989 0 255.99 33.536 219.42 33.536C182.851 33.536 182.851 0 146.282 0C109.712 0 109.712 33.536 73.141 33.536C36.57 33.536 36.57 0 0 0M0 84.596C36.571 84.596 36.571 118.132 73.141 118.132C109.711 118.132 109.711 84.596 146.282 84.596C182.851 84.596 182.851 118.132 219.42 118.132C255.991 118.132 255.991 84.596 292.561 84.596C329.133 84.596 329.133 118.132 365.705 118.132C402.279 118.132 402.279 84.596 438.852 84.596C475.425 84.596 475.426 118.132 511.999 118.132" stroke="#BFD7EB"/>
<path d="M511.999 202.729C475.425 202.729 475.425 169.193 438.852 169.193C402.279 169.193 402.278 202.729 365.705 202.729C329.133 202.729 329.133 169.193 292.561 169.193C255.989 169.193 255.99 202.729 219.42 202.729C182.851 202.729 182.851 169.193 146.282 169.193C109.712 169.193 109.712 202.729 73.141 202.729C36.57 202.729 36.57 169.192 0 169.192M0 253.788C36.571 253.788 36.571 287.324 73.141 287.324C109.711 287.324 109.711 253.788 146.282 253.788C182.851 253.788 182.851 287.324 219.42 287.324C255.991 287.324 255.991 253.788 292.561 253.788C329.133 253.788 329.133 287.324 365.705 287.324C402.279 287.324 402.279 253.788 438.852 253.788C475.425 253.788 475.426 287.324 511.999 287.324" stroke="#BFD7EB"/>
</mask>
<g mask="url(#mask0)">
<rect width="438" height="293" fill="#BFD7EB"/>
</g>
</svg>
